<svg width="293" height="80" viewBox="0 0 293 80" fill="current" xmlns="http://www.w3.org/2000/svg">
<path d="M65.6152 73.2892H68.6225V28.1798H94.54V52.4855H70.4819V55.571H97.5472V24.9807H65.6152V73.2892Z" fill="current"/>
<path d="M104.51 55.5142H107.518V28.1798H133.435V52.4286H109.377V55.5142H136.442V24.9333H104.51V55.5142Z" fill="current"/>
<path d="M221.196 55.4953H224.203V46.0115H248.365V43.0112H224.203V28.1798H250.12V55.5142H253.128V24.9333H221.196V55.4953Z" fill="current"/>
<path d="M292.08 55.4952V52.4948H263.193L263.098 24.9238H260.091L260.148 55.4952H292.08Z" fill="current"/>
<path d="M214.233 24.9238H182.301V28.1797H196.749V73.2891H199.785V28.1797H214.233V24.9238Z" fill="current"/>
<path d="M175.337 46.0872V24.9238H143.406V55.5141H146.413V28.1797H172.302V42.9259H148.272V46.0872L162.663 46.0304L171.742 55.5141L176.03 55.5047L166.961 46.0304L175.337 46.0872Z" fill="current"/>
<path d="M0.698242 6.80827L42.6765 30.9814V79.3466L53.1688 73.2986V24.9429L11.1904 0.760254L0.698242 6.80827Z" fill="current"/>
<path d="M11.1904 61.2121L21.6826 55.164V30.9814L11.1904 24.9429V61.2121Z" fill="current"/>
<path d="M79.4276 67.298C80.1771 67.298 80.5945 67.4589 81.0214 67.6293L81.4008 66.626C80.9834 66.3988 80.3858 66.1812 79.4181 66.1812C77.3216 66.1812 76.0125 67.5725 76.0125 69.7967C76.0125 72.3427 77.0844 73.4407 79.6838 73.4407C80.4237 73.4407 80.8696 73.3176 81.3629 73.1757L81.1732 72.1345C80.7747 72.2197 80.3573 72.3238 79.7881 72.3238C77.8813 72.3238 77.369 71.5099 77.369 69.7873C77.369 68.1025 78.2323 67.298 79.4276 67.298Z" fill="current"/>
<path d="M93.0031 67.2885V66.3609H91.6655V73.2892H93.0031V68.3201C93.3067 67.8658 93.9423 67.3547 94.7297 67.3547C95.1281 67.3547 95.2989 67.3831 95.5835 67.4399L95.7732 66.323C95.612 66.2757 95.3274 66.2095 94.9194 66.2095C94.0087 66.2095 93.3257 66.7868 93.0031 67.2885Z" fill="current"/>
<path d="M108.409 66.1812C106.55 66.1812 105.193 67.2128 105.193 69.9387C105.193 72.6267 106.512 73.4407 108.618 73.4407C109.5 73.4407 110.335 73.2892 110.933 73.0621L110.715 72.0304C110.088 72.2197 109.415 72.3333 108.922 72.3333C107.575 72.3333 106.559 72.0304 106.531 70.1374H111.085V69.6642C111.085 67.421 110.25 66.1812 108.409 66.1812ZM106.55 69.2099C106.654 67.8564 107.309 67.1844 108.267 67.1844C109.244 67.1844 109.718 67.9795 109.7 69.2099H106.55Z" fill="current"/>
<path d="M126.614 71.7936V68.178C126.614 66.7583 125.713 66.1904 123.977 66.1904C123 66.1904 122.184 66.4176 121.577 66.6637L121.871 67.6669C122.421 67.4871 123.104 67.3357 123.73 67.3357C124.859 67.3357 125.324 67.5912 125.324 68.5377V69.2854L123.797 69.3138C122.601 69.3233 121.045 69.6924 121.045 71.4055C121.045 72.7117 121.871 73.4121 123.189 73.4121C124.233 73.4121 124.935 72.9199 125.428 72.5413C125.542 73.1471 126.263 73.3742 126.918 73.3742C127.041 73.3742 127.183 73.3648 127.288 73.3458L127.326 72.3331C126.984 72.3047 126.614 72.2195 126.614 71.7936ZM125.314 71.7273C124.821 72.0492 124.157 72.352 123.512 72.352C122.848 72.352 122.326 72.0775 122.326 71.2825C122.326 70.6484 122.886 70.213 123.825 70.1941L125.314 70.1278V71.7273Z" fill="current"/>
<path d="M140.417 72.2953C139.677 72.2953 139.307 72.0682 139.307 71.2258V67.4115H141.47V66.3609H139.298V64.9412H137.998V66.3609H136.983V67.4115H137.998V71.2921C137.998 72.9673 138.833 73.4311 140.266 73.4311C140.721 73.4311 141.47 73.3081 141.869 73.1661L141.689 72.0871C141.338 72.2101 140.825 72.2953 140.417 72.2953Z" fill="current"/>
<path d="M151.649 64.2124L152.655 65.2346L153.68 64.2124L152.655 63.1997L151.649 64.2124Z" fill="current"/>
<path d="M153.348 66.3608H152V73.2891H153.348V66.3608Z" fill="current"/>
<path d="M167.113 70.7998L166.638 72.2669L166.221 70.8282L164.845 66.3608H163.413L165.766 73.2891H167.464L170.035 66.3608H168.649L167.113 70.7998Z" fill="current"/>
<path d="M182.889 66.1812C181.029 66.1812 179.673 67.2128 179.673 69.9387C179.673 72.6267 180.991 73.4407 183.098 73.4407C183.97 73.4407 184.815 73.2892 185.412 73.0621L185.194 72.0304C184.568 72.2197 183.894 72.3333 183.401 72.3333C182.054 72.3333 181.039 72.0304 181.01 70.1374H185.564V69.6642C185.555 67.421 184.729 66.1812 182.889 66.1812ZM181.029 69.2099C181.134 67.8564 181.788 67.1844 182.747 67.1844C183.724 67.1844 184.198 67.9795 184.188 69.2099H181.029Z" fill="current"/>
<path d="M212.459 68.1025C212.459 67.6293 212.857 67.2696 213.625 67.2696C214.252 67.2696 214.773 67.3737 215.314 67.5441L215.58 66.5408C214.992 66.3137 214.346 66.1812 213.587 66.1812C212.326 66.1812 211.149 66.891 211.149 68.1688C211.149 70.5823 214.65 70.0996 214.65 71.4436C214.65 72.002 214.119 72.3428 213.104 72.3428C212.572 72.3428 211.87 72.2197 211.197 72.0683L211.017 73.1378C211.605 73.3176 212.326 73.4407 213.189 73.4407C214.337 73.4407 215.931 72.958 215.931 71.3584C215.931 69.0774 212.459 69.456 212.459 68.1025Z" fill="current"/>
<path d="M229.041 72.2953C228.301 72.2953 227.931 72.0682 227.931 71.2258V67.4115H230.094V66.3609H227.922V64.9412H226.622V66.3609H225.607V67.4115H226.622V71.2921C226.622 72.9673 227.457 73.4311 228.889 73.4311C229.345 73.4311 230.094 73.3081 230.493 73.1661L230.312 72.0871C229.961 72.2101 229.449 72.2953 229.041 72.2953Z" fill="current"/>
<path d="M245.121 71.5476C244.637 71.8694 243.897 72.2574 243.091 72.2574C241.981 72.2574 241.867 71.5949 241.867 70.5443V66.3608H240.548V70.7525C240.548 72.0492 240.691 73.4405 242.711 73.4405C243.764 73.4405 244.552 72.92 245.13 72.5035V73.2891H246.43V66.3608H245.13V71.5476H245.121Z" fill="current"/>
<path d="M261.609 66.3325C261.201 66.2189 260.935 66.1811 260.376 66.1811C258.478 66.1811 256.941 67.402 256.941 69.8061C256.941 72.8538 258.611 73.4122 259.892 73.4122C260.689 73.4122 261.239 73.0052 261.609 72.6645V73.2891H262.946V63.7202H261.609V66.3325ZM261.609 71.6707C261.334 71.8694 260.679 72.2953 260.081 72.2953C259.038 72.2953 258.279 71.6139 258.279 69.844C258.279 68.4621 258.848 67.2411 260.376 67.2411C260.973 67.2411 261.315 67.3452 261.609 67.4304V71.6707Z" fill="current"/>
<path d="M275.212 66.3608H273.865V73.2891H275.212V66.3608Z" fill="current"/>
<path d="M273.524 64.2124L274.53 65.2346L275.545 64.2124L274.53 63.1997L273.524 64.2124Z" fill="current"/>
<path d="M289.025 66.1812C287.08 66.1812 285.705 67.5252 285.705 69.9008C285.705 72.1345 286.9 73.4407 288.93 73.4407C290.837 73.4407 292.231 72.2386 292.231 69.8251C292.241 67.5252 291.216 66.1812 289.025 66.1812ZM289.015 72.3617C287.517 72.3617 287.061 71.207 287.061 69.8346C287.061 68.5758 287.469 67.2507 288.996 67.2507C290.543 67.2507 290.903 68.5947 290.903 69.8251C290.894 71.1407 290.524 72.3617 289.015 72.3617Z" fill="current"/>
</svg>
