<svg width="32" height="32" viewBox="0 0 32 32" fill="none" xmlns="http://www.w3.org/2000/svg">
<path d="M20.5286 7.16435L18.0647 7.1604C15.2966 7.1604 13.5078 8.99571 13.5078 11.8363V13.9922H11.0305C10.8164 13.9922 10.643 14.1658 10.643 14.3799V17.5035C10.643 17.7176 10.8166 17.891 11.0305 17.891H13.5078V25.773C13.5078 25.9871 13.6811 26.1604 13.8952 26.1604H17.1274C17.3415 26.1604 17.5148 25.9869 17.5148 25.773V17.891H20.4114C20.6254 17.891 20.7988 17.7176 20.7988 17.5035L20.8 14.3799C20.8 14.2771 20.7591 14.1786 20.6865 14.1059C20.614 14.0332 20.5151 13.9922 20.4124 13.9922H17.5148V12.1646C17.5148 11.2862 17.7241 10.8403 18.8684 10.8403L20.5282 10.8397C20.7421 10.8397 20.9154 10.6662 20.9154 10.4523V7.55177C20.9154 7.3381 20.7423 7.16475 20.5286 7.16435Z" fill="white"/>
<circle cx="16" cy="16" r="15.5" stroke="white"/>
</svg>
