<svg width="32" height="32" viewBox="0 0 32 32" fill="none" xmlns="http://www.w3.org/2000/svg">
<path d="M16 11.7646C13.6595 11.7646 11.7647 13.6615 11.7647 15.9999C11.7647 18.3404 13.6616 20.2352 16 20.2352C18.3405 20.2352 20.2353 18.3384 20.2353 15.9999C20.2353 13.6595 18.3384 11.7646 16 11.7646ZM16 18.749C14.4807 18.749 13.251 17.5185 13.251 15.9999C13.251 14.4813 14.4814 13.2509 16 13.2509C17.5186 13.2509 18.749 14.4813 18.749 15.9999C18.7497 17.5185 17.5193 18.749 16 18.749Z" fill="white"/>
<path d="M19.2988 8.05026C17.8268 7.98159 14.1808 7.98492 12.7075 8.05026C11.4128 8.11092 10.2708 8.42358 9.35015 9.34423C7.81148 10.8829 8.00815 12.9562 8.00815 15.9968C8.00815 19.1087 7.83482 21.134 9.35015 22.6493C10.8948 24.1933 12.9982 23.9913 16.0028 23.9913C19.0855 23.9913 20.1495 23.9933 21.2395 23.5713C22.7215 22.996 23.8402 21.6714 23.9495 19.2921C24.0188 17.8194 24.0148 14.1741 23.9495 12.7008C23.8175 9.89222 22.3102 8.18892 19.2988 8.05026ZM21.6288 21.6314C20.6202 22.64 19.2208 22.55 15.9835 22.55C12.6502 22.55 11.3135 22.5993 10.3382 21.6214C9.21482 20.5034 9.41815 18.7081 9.41815 15.9861C9.41815 12.3028 9.04015 9.65023 12.7368 9.4609C13.5862 9.4309 13.8362 9.4209 15.9742 9.4209L16.0042 9.4409C19.5568 9.4409 22.3442 9.06891 22.5115 12.7648C22.5495 13.6082 22.5582 13.8615 22.5582 15.9961C22.5575 19.2907 22.6202 20.6354 21.6288 21.6314Z" fill="white"/>
<path d="M20.2353 12.7058C20.7551 12.7058 21.1765 12.2845 21.1765 11.7647C21.1765 11.2449 20.7551 10.8235 20.2353 10.8235C19.7155 10.8235 19.2941 11.2449 19.2941 11.7647C19.2941 12.2845 19.7155 12.7058 20.2353 12.7058Z" fill="white"/>
<circle cx="16" cy="16" r="15.5" stroke="white"/>
</svg>
