<svg width="32" height="32" viewBox="0 0 32 32" fill="none" xmlns="http://www.w3.org/2000/svg">
<path d="M9.41886 19.6487L13.327 16.8309C13.5911 16.6456 13.9546 16.6432 14.2212 16.8286L17.113 18.9308C17.9798 19.5357 19.2204 19.3223 19.7981 18.4695L23.433 13.0791C23.7841 12.5646 23.1017 11.983 22.5811 12.3514L18.6748 15.1196C18.4107 15.305 18.0472 15.3073 17.7807 15.1219L14.8888 13.0688C14.022 12.4639 12.7815 12.6771 12.2037 13.5299L8.56698 18.9208C8.21589 19.4354 8.89826 20.0172 9.41886 19.6487Z" fill="white"/>
<path d="M7.65006 27.7149L7.62475 27.462L7.40555 27.3334C3.22298 24.8796 0.5 20.7065 0.5 16C0.5 8.53613 7.37894 2.38232 16 2.38232C24.6211 2.38232 31.5 8.53613 31.5 16C31.5 23.4638 24.6211 29.6176 16 29.6176C14.4065 29.6176 12.8702 29.4064 11.425 29.0145C11.2193 28.9588 11.013 29.0015 10.8745 29.041C10.7188 29.0853 10.5523 29.155 10.3873 29.2342C10.0562 29.3932 9.67217 29.6198 9.29258 29.8555C9.02621 30.0208 8.76444 30.1886 8.51742 30.347C8.31661 30.4757 8.12554 30.5982 7.94969 30.708L7.65006 27.7149Z" stroke="white"/>
</svg>
