<svg width="18" height="133" viewBox="0 0 18 133" fill="none" xmlns="http://www.w3.org/2000/svg">
<g clip-path="url(#clip0)">
<path d="M18 132.981V131.204H1.91012V115.977H10.5843V130.102H12.4045V114.222H0.0224762V132.981H18Z" fill="white"/>
<path d="M18 110.222V108.445H1.91011V93.2403H16.1798V107.366H18V91.4634H0V110.222H18Z" fill="white"/>
<path d="M17.9775 41.5405V39.7636H12.4045V25.5706H10.6292V39.7636H1.91011V24.5584H18V22.7815H0V41.5405H17.9775Z" fill="white"/>
<path d="M17.9775 0H16.2247V16.9596L0 17.0271V18.7815L17.9775 18.759V0Z" fill="white"/>
<path d="M0 45.5405V64.2995H1.91011V55.8197H17.9775V54.0428H1.91011V45.5405H0Z" fill="white"/>
<path d="M12.4494 68.7044H0V87.4634H18V85.6865H1.91011V70.4814H10.5843V84.5844H12.4494L12.427 76.1496L18 70.8188L17.9775 68.2996L12.4045 73.6304L12.4494 68.7044Z" fill="white"/>
</g>
<defs>
<clipPath id="clip0">
<rect width="18" height="133" fill="white"/>
</clipPath>
</defs>
</svg>
